<svg width="30" height="32" viewBox="0 0 30 32" fill="none" xmlns="http://www.w3.org/2000/svg">
<g clip-path="url(#clip0_737_6329)">
<path d="M26.6136 3.12139C25.8275 2.38769 22.6509 0.0550249 15.5751 0.0233336C15.5751 0.0233336 7.23103 -0.485647 3.1634 3.28849C0.899122 5.57939 0.102591 8.93145 0.0185704 13.0873C-0.0654499 17.2432 -0.174155 25.0316 7.24764 27.1434H7.25476L7.25001 30.3658C7.25001 30.3658 7.20254 31.6704 8.05177 31.9364C9.079 32.2591 9.68186 31.2675 10.6626 30.1987C11.2009 29.6119 11.9442 28.75 12.5044 28.0912C17.5802 28.5234 21.4841 27.5357 21.9275 27.3897C22.9523 27.0536 28.7516 26.3016 29.6948 18.5142C30.6684 10.4872 29.2239 5.40989 26.6136 3.12139ZM27.4738 17.9385C26.6777 24.441 21.974 24.8496 21.1067 25.131C20.7379 25.251 17.3092 26.1139 12.9976 25.8291C12.9976 25.8291 9.78486 29.7497 8.78137 30.7691C8.62472 30.9285 8.44054 30.9929 8.31759 30.9612C8.14481 30.9185 8.09734 30.7115 8.09924 30.409C8.10208 29.9768 8.12677 25.0541 8.12677 25.0541C1.8485 23.291 2.21449 16.6622 2.28569 13.191C2.3569 9.7199 3.00153 6.87633 4.91643 4.96381C8.35699 1.81149 15.4446 2.28254 15.4446 2.28254C21.43 2.30894 24.2981 4.13215 24.9631 4.74293C27.1714 6.65545 28.2964 11.232 27.4738 17.9366V17.9385Z" fill="#7360F2"/>
<path fill-rule="evenodd" clip-rule="evenodd" d="M15.6959 10.3832C15.7074 10.16 15.8956 9.98842 16.1163 10.0001C16.9421 10.0436 17.6291 10.2965 18.1184 10.8082C18.6058 11.318 18.8447 12.0302 18.8867 12.8855C18.8976 13.1087 18.7275 13.2987 18.5068 13.3098C18.2861 13.3209 18.0983 13.1488 18.0873 12.9256C18.0514 12.1934 17.8528 11.695 17.5431 11.371C17.2352 11.049 16.7654 10.845 16.0746 10.8085C15.8539 10.7969 15.6844 10.6065 15.6959 10.3832Z" fill="#7360F2"/>
<path fill-rule="evenodd" clip-rule="evenodd" d="M15.0909 8.20253C15.1071 7.97957 15.2988 7.81205 15.5192 7.82837C17.1997 7.95277 18.5523 8.53358 19.5375 9.62147L19.5377 9.62162C20.5122 10.6988 20.9754 12.0388 20.9418 13.6106C20.937 13.8341 20.754 14.0113 20.533 14.0065C20.3121 14.0017 20.1368 13.8166 20.1416 13.5931C20.1713 12.207 19.7683 11.0757 18.9473 10.1682C18.1287 9.26442 16.9844 8.74857 15.4608 8.63578C15.2404 8.61946 15.0748 8.42549 15.0909 8.20253Z" fill="#7360F2"/>
<path fill-rule="evenodd" clip-rule="evenodd" d="M14.3828 6.12938C14.3844 5.90583 14.5648 5.72587 14.7858 5.72743C17.1081 5.74379 19.071 6.52582 20.647 8.07995C22.2363 9.64707 23.0222 11.7806 23.0421 14.4303C23.0438 14.6539 22.866 14.8365 22.645 14.8382C22.424 14.8399 22.2435 14.66 22.2418 14.4365C22.2231 11.9535 21.4929 10.0446 20.0884 8.65964C18.6707 7.26168 16.9105 6.55198 14.7802 6.53697C14.5592 6.53542 14.3813 6.35293 14.3828 6.12938Z" fill="#7360F2"/>
<path d="M16.1764 18.3272C16.1764 18.3272 16.7389 18.3752 17.0418 17.9978L17.6323 17.2463C17.9171 16.8737 18.6045 16.636 19.2776 17.0154C19.782 17.3064 20.2717 17.6227 20.7449 17.9632C21.1915 18.2955 22.1063 19.0676 22.1091 19.0676C22.5449 19.4398 22.6455 19.9862 22.3488 20.5624C22.3488 20.5658 22.3465 20.5715 22.3465 20.5744C22.0197 21.1474 21.6049 21.6641 21.1175 22.1052C21.1118 22.1081 21.1118 22.1109 21.1066 22.1138C20.6831 22.4717 20.2672 22.6751 19.8586 22.7241C19.7985 22.7348 19.7373 22.7386 19.6763 22.7356C19.4962 22.7374 19.3169 22.7095 19.1456 22.653L19.1323 22.6334C18.5029 22.4538 17.4519 22.0043 15.7017 21.0277C14.6889 20.4691 13.7247 19.8249 12.8194 19.1017C12.3656 18.7395 11.9328 18.3512 11.523 17.9387L11.4794 17.8946L11.4357 17.8504L11.392 17.8062C11.3773 17.7918 11.3631 17.7769 11.3483 17.762C10.9406 17.3475 10.5568 16.9097 10.1986 16.4507C9.48385 15.535 8.84692 14.5599 8.29466 13.5356C7.32913 11.7647 6.88482 10.7026 6.70729 10.0649L6.68783 10.0515C6.63218 9.87815 6.60476 9.69684 6.60666 9.51463C6.60333 9.45294 6.607 9.39108 6.61757 9.33024C6.66852 8.91761 6.86995 8.4965 7.22185 8.06691C7.2247 8.06163 7.22755 8.06163 7.2304 8.05587C7.66631 7.56288 8.17716 7.14339 8.74371 6.81319C8.74656 6.81319 8.75226 6.81031 8.75558 6.81031C9.32521 6.5102 9.86541 6.612 10.2328 7.05039C10.2357 7.05327 10.9975 7.97856 11.3246 8.4304C11.6613 8.90948 11.974 9.40532 12.2617 9.91605C12.6367 10.5964 12.4017 11.2932 12.0333 11.5803L11.2904 12.1777C10.9154 12.484 10.9648 13.053 10.9648 13.053C10.9648 13.053 12.0651 17.2655 16.1764 18.3272Z" fill="#7360F2"/>
</g>
<defs>
<clipPath id="clip0_737_6329">
<rect width="30" height="32" fill="white"/>
</clipPath>
</defs>
</svg>
