<svg width="32" height="32" viewBox="0 0 32 32" fill="none" xmlns="http://www.w3.org/2000/svg">
<mask id="mask0_737_6317" style="mask-type:luminance" maskUnits="userSpaceOnUse" x="0" y="0" width="32" height="32">
<path d="M31.8414 0H0.158203V32H31.8414V0Z" fill="white"/>
</mask>
<g mask="url(#mask0_737_6317)">
<path d="M0.158203 15.36C0.158203 8.11923 0.158203 4.49885 2.38535 2.24942C4.61251 0 8.19705 0 15.3661 0H16.6335C23.8025 0 27.3871 0 29.6142 2.24942C31.8414 4.49885 31.8414 8.11923 31.8414 15.36V16.64C31.8414 23.8808 31.8414 27.5012 29.6142 29.7506C27.3871 32 23.8025 32 16.6335 32H15.3661C8.19705 32 4.61251 32 2.38535 29.7506C0.158203 27.5012 0.158203 23.8808 0.158203 16.64V15.36Z" fill="#0077FF"/>
<path d="M17.0154 23.0534C9.79431 23.0534 5.67553 18.0534 5.50391 9.7334H9.12108C9.23989 15.8401 11.9065 18.4267 14.0187 18.9601V9.7334H17.4248V15C19.5106 14.7734 21.7017 12.3734 22.441 9.7334H25.847C25.2794 12.9867 22.9031 15.3867 21.2134 16.3734C22.9031 17.1734 25.6095 19.2667 26.6392 23.0534H22.8899C22.0847 20.5201 20.0782 18.5601 17.4248 18.2934V23.0534H17.0154Z" fill="white"/>
</g>
</svg>
