<svg width="156.39767074497976" height="106.5234375" viewBox="0 0 350 238.3872019794563" class="looka-1j8o68f"><defs id="SvgjsDefs1217"></defs><g id="SvgjsG1218" featurekey="cWd8YO-0" transform="matrix(1.3999878235922325,0,0,1.3999878235922325,105.00121315605517,-21.481410302675283)" fill="#6639a6"><g xmlns="http://www.w3.org/2000/svg"><path d="M56.452,54.774l6.297-1.147c0.017-1.813-0.124-3.616-0.415-5.388l-6.397-0.192c-0.444-2.078-1.15-4.098-2.102-6.003   l4.879-4.143c-0.879-1.571-1.896-3.064-3.042-4.47l-5.637,3.035c-1.401-1.559-3.016-2.957-4.829-4.149l2.15-6.025   c-0.769-0.457-1.562-0.889-2.386-1.284c-0.82-0.395-1.646-0.741-2.479-1.059l-3.365,5.447c-2.062-0.673-4.163-1.065-6.258-1.189   l-1.149-6.296c-1.813-0.02-3.614,0.12-5.385,0.411l-0.193,6.397c-2.081,0.444-4.101,1.15-6.008,2.104l-4.146-4.878   c-1.565,0.882-3.059,1.898-4.46,3.042l3.032,5.633c-1.559,1.401-2.961,3.022-4.153,4.836C8.22,38.676,6.158,37.94,4.38,37.304   c-0.454,0.774-0.885,1.562-1.28,2.382s-0.742,1.649-1.062,2.486c1.607,0.993,3.466,2.144,5.443,3.365   c-0.67,2.062-1.062,4.166-1.187,6.261l-6.293,1.149c-0.02,1.811,0.121,3.61,0.412,5.385l6.397,0.189   c0.447,2.085,1.156,4.107,2.107,6.009L4.04,68.674c0.883,1.568,1.896,3.062,3.046,4.466l5.63-3.035   c1.408,1.559,3.025,2.957,4.835,4.149l-2.146,6.025c0.765,0.451,1.556,0.882,2.376,1.274c0.823,0.398,1.653,0.748,2.492,1.062   l3.366-5.44c2.058,0.67,4.159,1.062,6.25,1.184l1.15,6.296c1.813,0.02,3.613-0.124,5.388-0.412l0.196-6.4   c2.078-0.444,4.094-1.15,5.999-2.104l4.143,4.875c1.568-0.875,3.062-1.892,4.467-3.035l-3.032-5.64   c1.556-1.401,2.95-3.016,4.143-4.829l6.025,2.153c0.454-0.771,0.889-1.565,1.284-2.385c0.392-0.817,0.738-1.65,1.059-2.487   l-5.443-3.365C55.937,58.966,56.328,56.868,56.452,54.774z M42.814,58.783c-3.039,6.319-10.622,8.979-16.941,5.937   c-6.319-3.035-8.979-10.619-5.937-16.938c3.038-6.319,10.622-8.979,16.938-5.94C43.193,44.881,45.854,52.464,42.814,58.783z"></path><path d="M93.942,35.007L100,32c-0.379-1.686-0.954-3.326-1.715-4.878l-6.61,1.435c-0.921-1.467-2.095-2.794-3.493-3.901l2.16-6.407   c-0.722-0.457-1.474-0.886-2.261-1.265c-0.791-0.379-1.592-0.699-2.401-0.977l-3.66,5.685c-1.738-0.398-3.506-0.489-5.228-0.29   l-3.006-6.058c-1.687,0.375-3.326,0.95-4.878,1.708l1.434,6.607c-1.47,0.918-2.803,2.091-3.917,3.492   c-2.255-0.761-4.474-1.506-6.407-2.159c-0.461,0.725-0.893,1.479-1.271,2.277c-0.379,0.78-0.695,1.574-0.974,2.378   c1.716,1.102,3.689,2.373,5.688,3.656c-0.408,1.748-0.496,3.522-0.297,5.254c-2.131,1.056-4.231,2.098-6.062,3.007   c0.376,1.683,0.948,3.319,1.706,4.871c1.996-0.435,4.283-0.931,6.606-1.435c0.925,1.48,2.104,2.816,3.516,3.935l-2.163,6.403   c0.723,0.458,1.471,0.883,2.265,1.262c0.784,0.379,1.584,0.699,2.389,0.98c1.104-1.716,2.368-3.689,3.659-5.692   c1.751,0.409,3.532,0.494,5.267,0.294l3,6.055c1.686-0.379,3.322-0.95,4.875-1.712c-0.435-1.993-0.932-4.283-1.435-6.61   c1.47-0.921,2.803-2.101,3.917-3.509l6.408,2.156c0.454-0.715,0.875-1.46,1.251-2.244c0.379-0.794,0.706-1.602,0.983-2.411   l-5.688-3.663C94.057,38.503,94.146,36.729,93.942,35.007z M85.052,39.917c-1.729,3.588-6.034,5.098-9.619,3.372   c-3.588-1.725-5.097-6.031-3.372-9.619c1.723-3.588,6.032-5.097,9.619-3.372C85.265,32.021,86.773,36.33,85.052,39.917z"></path></g></g><g id="SvgjsG1219" featurekey="TZbA6h-0" transform="matrix(4.73484860213429,0,0,4.73484860213429,-2.08333309143136,90.67424204306356)" fill="#521262"><path d="M0.74 20 l0 -2.26 l1.06 0 l0 -4.82 l-1.36 0 l0 -2.26 l4.48 0 l0 7.08 l1.06 0 l0 2.26 l-5.24 0 z M1.28 7.4 c0 -1.02 0.84 -1.84 1.86 -1.84 c1.04 0 1.86 0.82 1.86 1.84 s-0.82 1.86 -1.86 1.86 c-1.02 0 -1.86 -0.84 -1.86 -1.86 z M7.12 20 l0 -2.26 l1.06 0 l0 -4.82 l-1.36 0 l0 -2.26 l4.26 0 l0 1.68 c0.24 -0.64 1.02 -1.96 3.1 -1.96 c1.38 0 2.98 0.56 2.98 3.48 l0 3.88 l1.06 0 l0 2.26 l-5.04 0 l0 -2.26 l0.86 0 l0 -3.08 c0 -1.1 -0.26 -1.64 -0.9 -1.64 c-1.12 0 -1.68 1.4 -1.84 1.96 l0 2.76 l0.86 0 l0 2.26 l-5.04 0 z M24 20.28 c-3.78 0 -4.92 -2.34 -4.92 -5.02 c0 -2.62 1.08 -4.88 4.86 -4.88 c3.86 0 4.88 2.34 4.88 4.92 c0 2.74 -1.14 4.98 -4.82 4.98 z M23.96 17.96 c1.36 0 1.62 -1.26 1.62 -2.62 s-0.26 -2.64 -1.64 -2.64 c-1.36 0 -1.62 1.28 -1.62 2.6 c0 1.34 0.26 2.66 1.64 2.66 z M31.359999999999996 16.06 c-0.06 0 -0.12 0 -0.18 0.02 l0 1.96 c0.04 0.02 0.12 0.02 0.18 0.02 c0.52 0 0.62 -0.38 0.62 -1 c0 -0.64 -0.1 -1 -0.62 -1 l0 0 z M34.4 16.78 l0 0.48 l-0.8 0 l0 0.76 l0.94 0 l0 0.48 l-1.52 0 l0 -2.9 l1.52 0 l0 0.5 l-0.94 0 l0 0.68 l0.8 0 z M31.319999999999997 18.54 c-0.16 0 -0.46 0 -0.72 -0.04 l0 -2.86 c0.26 -0.04 0.54 -0.08 0.74 -0.08 c0.9 0 1.22 0.5 1.22 1.5 c0 1.02 -0.34 1.48 -1.24 1.48 l0 0 z M35.059999999999995 15.6 l0.78 0 l0.38 1.6 l0.38 -1.6 l0.8 0 c0.04 0.7 0.08 1.96 0.12 2.9 l-0.58 0 c0 -0.68 -0.02 -1.4 -0.06 -2.08 l-0.4 1.64 l-0.54 0 l-0.4 -1.64 l-0.02 0 c-0.02 0.68 -0.04 1.4 -0.04 2.08 l-0.56 0 c0.02 -0.94 0.08 -2.2 0.14 -2.9 l0 0 z M38.98 18.54 c-0.8 0 -1.06 -0.46 -1.06 -1.48 s0.26 -1.5 1.06 -1.5 s1.08 0.48 1.08 1.5 s-0.28 1.48 -1.08 1.48 l0 0 z M38.98 16.06 c-0.4 0 -0.48 0.34 -0.48 1 c0 0.64 0.08 1 0.48 1 c0.42 0 0.5 -0.36 0.5 -1 c0 -0.66 -0.08 -1 -0.5 -1 z M38.779999999999994 10.08 c1.04 0 1.24 0.84 1.24 1.26 c0 0.62 -0.62 0.98 -1.04 1.04 c-1.44 0.16 -2.48 0.62 -3.32 1.44 c0 0 1.46 -3.74 3.12 -3.74 l0 0 z M32.12 11.12 c1.88 0 3.12 3.74 3.12 3.74 c-0.82 -1.04 -1.86 -1.44 -3.12 -1.44 c-0.62 0 -1.24 -0.42 -1.24 -1.04 c0 -0.64 0.42 -1.26 1.24 -1.26 l0 0 z M35.62 8.14 c1.34 1.3 -0.38 4.86 -0.38 4.86 c0.14 -1.32 -0.32 -2.36 -1.22 -3.22 c-0.44 -0.44 -0.6 -1.16 -0.18 -1.62 c0.44 -0.44 1.18 -0.6 1.78 -0.02 l0 0 z M41.86 24.56 l0 -2.26 l1.06 0 l0 -9.38 l-1.36 0 l0 -2.26 l4.26 0 l0 1.18 c0.06 -0.2 0.62 -1.46 2.68 -1.46 c3 0 3.98 2.54 3.98 4.8 c0 2.88 -1.56 5.1 -4.16 5.1 c-1.54 0 -2.22 -0.88 -2.28 -0.96 l0 2.98 l1.06 0 l0 2.26 l-5.24 0 z M47.64 17.96 c0.64 0 1.6 -0.26 1.6 -2.68 c0 -1.92 -0.6 -2.58 -1.56 -2.58 c-1.06 0 -1.64 0.8 -1.64 2.7 c0 1.7 0.46 2.56 1.6 2.56 z M56.86 13.9 l-3.1 -0.58 c-0.02 -0.1 -0.02 -0.2 -0.02 -0.3 c0 -1.48 1.44 -2.64 4.3 -2.64 s3.92 1.18 3.92 3.76 l0 2.2 c0 0.86 0.02 1.36 0.66 1.36 c0.12 0 0.26 -0.02 0.44 -0.06 l-0.56 2.46 c-0.34 0.06 -0.64 0.08 -0.9 0.08 c-1.48 0 -2.12 -0.7 -2.34 -1.3 c-0.48 0.68 -1.2 1.4 -2.66 1.4 c-1.7 0 -3.16 -0.96 -3.16 -2.74 c0 -2.16 2.14 -3.14 5.4 -3.16 l0 -0.28 c0 -1.06 -0.26 -1.44 -1.02 -1.44 c-0.64 0 -0.98 0.26 -0.98 0.96 c0 0.08 0 0.18 0.02 0.28 z M58.84 16.88 l0 -0.74 c-1.22 0.02 -2.26 0.24 -2.26 1.16 c0 0.52 0.34 0.76 0.86 0.76 c0.6 0 1.32 -0.32 1.4 -1.18 z M63.96 23.62 l1.48 -2 c0.02 0.04 0.44 0.72 1.02 0.72 s0.92 -0.32 1.1 -1.3 l0.2 -1.12 l-3.3 -7 l-0.92 0 l0 -2.26 l4.9 0 l0 2.26 l-0.78 0 l1.54 3.76 l1.3 -3.76 l-0.78 0 l0 -2.26 l4.64 0 l0 2.26 l-0.92 0 l-2.9 7.26 l-0.26 1.44 c-0.3 1.64 -1.24 3.22 -3.7 3.22 c-1.92 0 -2.62 -1.22 -2.62 -1.22 z"></path></g><g id="SvgjsG1220" featurekey="hKLqjk-0" transform="matrix(1.2801752918595088,0,0,1.2801752918595088,32.87493545956384,212.39283207515092)" fill="#6639a6"><path d="M9.44 20.3 l-6.88 -0.000019531 c-0.25334 0 -0.46668 -0.08666 -0.64002 -0.26 s-0.26 -0.38 -0.26 -0.62 l0 -0.04 l0 -0.04 l0 -13.94 c0 -0.24 0.08666 -0.44666 0.26 -0.62 s0.38668 -0.26 0.64002 -0.26 l6.88 0 c0.25334 0 0.46668 0.08666 0.64002 0.26 s0.26 0.38 0.26 0.62 c0 0.25334 -0.08666 0.46334 -0.26 0.63 s-0.38668 0.25 -0.64002 0.25 l-6 0 l0 5.1 l5.06 0 c0.24 0 0.44666 0.08334 0.62 0.25 s0.26 0.37666 0.26 0.63 c0 0.24 -0.08666 0.44666 -0.26 0.62 s-0.38 0.26 -0.62 0.26 l-5.06 0 l0 5.38 l6 0 c0.25334 0 0.46668 0.08666 0.64002 0.26 s0.26 0.38668 0.26 0.64002 c0 0.24 -0.08666 0.44666 -0.26 0.62 s-0.38668 0.26 -0.64002 0.26 z M43.38 20.22 c-0.10666 0.05334 -0.21992 0.08 -0.33992 0.08 c-0.17334 0 -0.33668 -0.04666 -0.49002 -0.14 s-0.26334 -0.22668 -0.33 -0.40002 l-1.58 -3.72 l-7.26 0 l-1.58 3.72 c-0.09334 0.22666 -0.25334 0.38666 -0.48 0.48 s-0.45332 0.08668 -0.67998 -0.01998 c-0.22666 -0.09334 -0.38666 -0.25334 -0.48 -0.48 s-0.08668 -0.45332 0.01998 -0.67998 l1.8 -4.26 l4.22 -9.88 c0.06666 -0.17334 0.17332 -0.30668 0.31998 -0.40002 s0.31332 -0.14 0.49998 -0.14 c0.17334 0 0.33334 0.04666 0.48 0.14 s0.25332 0.22668 0.31998 0.40002 c1.0133 2.3734 2.02 4.73 3.02 7.07 s2.0066 4.6966 3.02 7.07 c0.09334 0.22666 0.09334 0.45332 0 0.67998 s-0.25334 0.38666 -0.48 0.48 z M37.02 7.539999999999999 l-2.88 6.72 l5.74 0 z M68.82000000000001 20.3 c-0.61334 0 -1.1867 -0.11668 -1.72 -0.35002 s-1 -0.55 -1.4 -0.95 s-0.71666 -0.86666 -0.95 -1.4 s-0.35 -1.1067 -0.35 -1.72 c0 -0.25334 0.08666 -0.46668 0.26 -0.64002 s0.38668 -0.26 0.64002 -0.26 c0.24 0 0.44666 0.08666 0.62 0.26 s0.26 0.38668 0.26 0.64002 c0 0.36 0.07 0.7 0.21 1.02 s0.33 0.6 0.57 0.84 s0.52 0.43 0.84 0.57 s0.66 0.21 1.02 0.21 s0.70334 -0.07 1.03 -0.21 s0.61 -0.33 0.85 -0.57 s0.43 -0.52 0.57 -0.84 s0.21 -0.66 0.21 -1.02 c0 -0.44 -0.08666 -0.80334 -0.26 -1.09 s-0.41334 -0.53666 -0.72 -0.75 c-0.14666 -0.10666 -0.31332 -0.20332 -0.49998 -0.28998 s-0.38 -0.17666 -0.58 -0.27 c-0.2 -0.08 -0.40666 -0.16 -0.62 -0.24 s-0.43334 -0.16 -0.66 -0.24 c-0.44 -0.16 -0.88334 -0.34 -1.33 -0.54 s-0.84666 -0.45 -1.2 -0.75 s-0.64334 -0.67334 -0.87 -1.12 s-0.34 -0.99666 -0.34 -1.65 c0 -0.61334 0.11666 -1.1867 0.35 -1.72 s0.55 -1 0.95 -1.4 s0.86666 -0.71666 1.4 -0.95 s1.1067 -0.35 1.72 -0.35 s1.19 0.11666 1.73 0.35 s1.01 0.55 1.41 0.95 s0.71666 0.86666 0.95 1.4 s0.35 1.1067 0.35 1.72 c0 0.24 -0.08666 0.44666 -0.26 0.62 s-0.38668 0.26 -0.64002 0.26 c-0.24 0 -0.44666 -0.08666 -0.62 -0.26 s-0.26 -0.38 -0.26 -0.62 c0 -0.36 -0.07 -0.70334 -0.21 -1.03 s-0.33 -0.61 -0.57 -0.85 s-0.52334 -0.43 -0.85 -0.57 s-0.67 -0.21 -1.03 -0.21 s-0.7 0.07 -1.02 0.21 s-0.6 0.33 -0.84 0.57 s-0.43 0.52334 -0.57 0.85 s-0.21 0.67 -0.21 1.03 c0 0.4 0.08334 0.73334 0.25 1 s0.40332 0.5 0.70998 0.7 c0.32 0.2 0.68 0.38 1.08 0.54 l0.64 0.24 l0.66 0.24 c0.44 0.16 0.88334 0.34334 1.33 0.55 s0.84666 0.46666 1.2 0.78 s0.64334 0.70334 0.87 1.17 s0.34 1.04 0.34 1.72 c0 0.61334 -0.11666 1.1867 -0.35 1.72 s-0.55 1 -0.95 1.4 s-0.87 0.71666 -1.41 0.95 s-1.1167 0.35 -1.73 0.35 z M104.48 5.84 l-4.54 8.12 l0 5.46 c0 0.24 -0.08666 0.44666 -0.26 0.62 s-0.38 0.26 -0.62 0.26 s-0.44666 -0.08666 -0.62 -0.26 s-0.26 -0.38 -0.26 -0.62 l0 -5.46 l-4.54 -8.12 c-0.08 -0.13334 -0.12 -0.28 -0.12 -0.44 c0 -0.24 0.08666 -0.44666 0.26 -0.62 s0.38 -0.26 0.62 -0.26 c0.16 0 0.31 0.04 0.45 0.12 s0.25 0.18666 0.33 0.32 l3.88 6.94 l3.88 -6.94 c0.08 -0.13334 0.19 -0.24 0.33 -0.32 s0.29 -0.12 0.45 -0.12 c0.24 0 0.44666 0.08666 0.62 0.26 s0.26 0.38 0.26 0.62 c0 0.16 -0.04 0.30666 -0.12 0.44 z M155.66000000000003 13.36 l-2.64 -0.000039062 l0 6.06 c0 0.24 -0.08666 0.44666 -0.26 0.62 s-0.38 0.26 -0.62 0.26 c-0.25334 0 -0.46668 -0.08666 -0.64002 -0.26 s-0.26 -0.38 -0.26 -0.62 l0 -14.02 c0 -0.24 0.08666 -0.44666 0.26 -0.62 s0.38668 -0.26 0.64002 -0.26 l3.52 0 c0.61334 0 1.19 0.11666 1.73 0.35 s1.01 0.55 1.41 0.95 s0.71666 0.86666 0.95 1.4 s0.35 1.1067 0.35 1.72 s-0.11666 1.1867 -0.35 1.72 s-0.55 1 -0.95 1.4 s-0.87 0.71666 -1.41 0.95 s-1.1167 0.35 -1.73 0.35 z M155.66000000000003 6.279999999999999 l-2.64 0 l0 5.3 l2.64 0 c0.36 0 0.70334 -0.07 1.03 -0.21 s0.61 -0.33 0.85 -0.57 s0.43 -0.52 0.57 -0.84 s0.21 -0.66 0.21 -1.02 s-0.07 -0.70334 -0.21 -1.03 s-0.33 -0.61 -0.57 -0.85 s-0.52334 -0.43 -0.85 -0.57 s-0.67 -0.21 -1.03 -0.21 z M191.18 20.22 c-0.10666 0.05334 -0.21992 0.08 -0.33992 0.08 c-0.17334 0 -0.33668 -0.04666 -0.49002 -0.14 s-0.26334 -0.22668 -0.33 -0.40002 l-1.58 -3.72 l-7.26 0 l-1.58 3.72 c-0.09334 0.22666 -0.25334 0.38666 -0.48 0.48 s-0.45332 0.08668 -0.67998 -0.01998 c-0.22666 -0.09334 -0.38666 -0.25334 -0.48 -0.48 s-0.08668 -0.45332 0.01998 -0.67998 l1.8 -4.26 l4.22 -9.88 c0.06666 -0.17334 0.17332 -0.30668 0.31998 -0.40002 s0.31332 -0.14 0.49998 -0.14 c0.17334 0 0.33334 0.04666 0.48 0.14 s0.25332 0.22668 0.31998 0.40002 c1.0133 2.3734 2.02 4.73 3.02 7.07 s2.0066 4.6966 3.02 7.07 c0.09334 0.22666 0.09334 0.45332 0 0.67998 s-0.25334 0.38666 -0.48 0.48 z M184.82 7.539999999999999 l-2.88 6.72 l5.74 0 z M220.26000000000002 5.84 l-4.54 8.12 l0 5.46 c0 0.24 -0.08666 0.44666 -0.26 0.62 s-0.38 0.26 -0.62 0.26 s-0.44666 -0.08666 -0.62 -0.26 s-0.26 -0.38 -0.26 -0.62 l0 -5.46 l-4.54 -8.12 c-0.08 -0.13334 -0.12 -0.28 -0.12 -0.44 c0 -0.24 0.08666 -0.44666 0.26 -0.62 s0.38 -0.26 0.62 -0.26 c0.16 0 0.31 0.04 0.45 0.12 s0.25 0.18666 0.33 0.32 l3.88 6.94 l3.88 -6.94 c0.08 -0.13334 0.19 -0.24 0.33 -0.32 s0.29 -0.12 0.45 -0.12 c0.24 0 0.44666 0.08666 0.62 0.26 s0.26 0.38 0.26 0.62 c0 0.16 -0.04 0.30666 -0.12 0.44 z"></path></g></svg>