<svg width="31" height="24" viewBox="0 0 31 24" fill="none" xmlns="http://www.w3.org/2000/svg">
<g clip-path="url(#clip0_737_6207)">
<path d="M2.11364 23.9999H7.04545V11.6363L0 6.18176V21.8181C0 23.0254 0.947614 23.9999 2.11364 23.9999Z" fill="#4285F4"/>
<path d="M23.9551 23.9999H28.8869C30.0564 23.9999 31.0005 23.0218 31.0005 21.8181V6.18176L23.9551 11.6363" fill="#34A853"/>
<path d="M23.9551 2.18178V11.6363L31.0005 6.18178V3.27269C31.0005 0.574509 28.0168 -0.963673 25.9278 0.654509" fill="#FBBC04"/>
<path d="M7.04492 11.6363V2.18176L15.4995 8.72722L23.954 2.18176V11.6363L15.4995 18.1818" fill="#EA4335"/>
<path d="M0 3.27269V6.18178L7.04545 11.6363V2.18178L5.07273 0.654509C2.98023 -0.963673 0 0.574509 0 3.27269Z" fill="#C5221F"/>
</g>
<defs>
<clipPath id="clip0_737_6207">
<rect width="31" height="24" fill="white"/>
</clipPath>
</defs>
</svg>
