<svg width="32" height="29" viewBox="0 0 32 29" fill="none" xmlns="http://www.w3.org/2000/svg">
<g clip-path="url(#clip0_737_6219)">
<path d="M10.9525 3.65381C11.2585 2.84896 11.6792 2.108 12.3039 1.50755C14.8027 -0.932533 18.9334 -0.319318 20.629 2.74676C21.9039 5.07187 23.2553 7.34588 24.5685 9.64544C26.7613 13.4653 28.9796 17.2851 31.1469 21.1177C32.9701 24.3243 30.994 28.3741 27.3732 28.9234C25.1549 29.2556 23.0768 28.2335 21.9294 26.2406C20.0043 22.8807 18.0665 19.5208 16.1414 16.1736C16.1031 16.097 16.0521 16.0331 16.0011 15.9692C15.7971 15.8031 15.7079 15.5604 15.5804 15.3432C14.7262 13.8357 13.8465 12.341 12.9924 10.8463C12.4442 9.8754 11.8705 8.91725 11.3222 7.94632C10.825 7.0776 10.5956 6.13222 10.6211 5.13575C10.6593 4.62474 10.723 4.11372 10.9525 3.65381Z" fill="#3C8BD9"/>
<path d="M10.9531 3.65381C10.8383 4.11372 10.7364 4.57363 10.7109 5.05909C10.6726 6.13222 10.9403 7.1287 11.4758 8.0613C12.8782 10.4758 14.2806 12.9031 15.6702 15.3305C15.7977 15.5476 15.8997 15.7648 16.0272 15.9692C15.2622 17.2979 14.4973 18.6137 13.7196 19.9424C12.6487 21.7948 11.5778 23.66 10.4941 25.5124C10.4431 25.5124 10.4304 25.4868 10.4176 25.4485C10.4049 25.3463 10.4431 25.2569 10.4686 25.1547C10.9913 23.2384 10.5579 21.5393 9.24472 20.0829C8.44153 19.2014 7.42161 18.7031 6.2487 18.5371C4.71882 18.3199 3.36743 18.7159 2.15627 19.6741C1.93954 19.8402 1.7993 20.0829 1.54432 20.2106C1.49333 20.2106 1.46783 20.1851 1.45508 20.1468C2.06703 19.0864 2.66623 18.0261 3.27819 16.9657C5.80249 12.571 8.32679 8.17628 10.8638 3.79434C10.8893 3.74324 10.9276 3.70491 10.9531 3.65381Z" fill="#FABC04"/>
<path d="M1.5053 20.1851C1.74753 19.9679 1.97701 19.738 2.23199 19.5336C5.33 17.0807 9.98339 18.8565 10.6591 22.7402C10.8248 23.6728 10.7356 24.567 10.4551 25.4613C10.4424 25.538 10.4296 25.6018 10.4041 25.6785C10.2894 25.8829 10.1874 26.1001 10.0599 26.3045C8.92522 28.1825 7.2551 29.1151 5.06227 28.9745C2.55072 28.7957 0.574624 26.9049 0.230401 24.401C0.0646642 23.1873 0.306895 22.0503 0.931596 21.0027C1.05909 20.7728 1.21207 20.5684 1.35231 20.3384C1.41606 20.2873 1.39056 20.1851 1.5053 20.1851Z" fill="#34A852"/>
<path d="M1.5055 20.1851C1.45451 20.2362 1.45451 20.3257 1.36526 20.3384C1.35251 20.249 1.40351 20.1979 1.45451 20.134L1.5055 20.1851Z" fill="#FABC04"/>
<path d="M10.404 25.6784C10.3528 25.5889 10.404 25.5251 10.4553 25.4612C10.4681 25.474 10.4938 25.4995 10.5066 25.5123L10.404 25.6784Z" fill="#E1C025"/>
</g>
<defs>
<clipPath id="clip0_737_6219">
<rect width="32" height="29" fill="white"/>
</clipPath>
</defs>
</svg>
