<svg width="20" height="20" viewBox="0 0 20 20" fill="none" xmlns="http://www.w3.org/2000/svg">
<path d="M14.9993 6.66659V4.99992C14.9993 4.55789 14.8238 4.13397 14.5112 3.82141C14.1986 3.50885 13.7747 3.33325 13.3327 3.33325H3.33268C2.89065 3.33325 2.46673 3.50885 2.15417 3.82141C1.84161 4.13397 1.66602 4.55789 1.66602 4.99992V10.8333C1.66602 11.2753 1.84161 11.6992 2.15417 12.0118C2.46673 12.3243 2.89065 12.4999 3.33268 12.4999H9.99935" stroke="#030712" stroke-width="1.5" stroke-linecap="round" stroke-linejoin="round"/>
<path d="M8.33398 15.8334V12.5334V15.1584" stroke="#030712" stroke-width="1.5" stroke-linecap="round" stroke-linejoin="round"/>
<path d="M5.83398 15.8333H10.0007" stroke="#030712" stroke-width="1.5" stroke-linecap="round" stroke-linejoin="round"/>
<path d="M16.6673 10H15.0007C14.0802 10 13.334 10.7462 13.334 11.6667V16.6667C13.334 17.5871 14.0802 18.3333 15.0007 18.3333H16.6673C17.5878 18.3333 18.334 17.5871 18.334 16.6667V11.6667C18.334 10.7462 17.5878 10 16.6673 10Z" stroke="#030712" stroke-width="1.5" stroke-linecap="round" stroke-linejoin="round"/>
</svg>
