<svg width="32" height="32" viewBox="0 0 32 32" fill="none" xmlns="http://www.w3.org/2000/svg">
<mask id="mask0_737_6213" style="mask-type:alpha" maskUnits="userSpaceOnUse" x="0" y="0" width="32" height="32">
<path d="M16 32C24.8366 32 32 24.8366 32 16C32 7.16344 24.8366 0 16 0C7.16344 0 0 7.16344 0 16C0 24.8366 7.16344 32 16 32Z" fill="white"/>
</mask>
<g mask="url(#mask0_737_6213)">
<path d="M32 0H0V32H32V0Z" fill="url(#paint0_linear_737_6213)"/>
<path fill-rule="evenodd" clip-rule="evenodd" d="M36.2162 1.92782C38.4749 2.65427 39.6933 5.06641 38.9376 7.31545L30.7933 31.5549C30.0376 33.8039 27.5941 35.0383 25.3354 34.3119C23.0768 33.5853 21.8584 31.1733 22.6141 28.9242L25.3392 20.8133L-12.5238 55.5615L-18.5488 48.9962L19.2882 14.2717L11.0469 16.2745C8.74131 16.8348 6.44237 15.4143 5.91197 13.1018C5.38157 10.7892 6.82077 8.4603 9.1261 7.90001L33.2786 2.03043C34.1864 1.66849 35.2194 1.60718 36.2162 1.92782Z" fill="url(#paint1_linear_737_6213)"/>
</g>
<defs>
<linearGradient id="paint0_linear_737_6213" x1="4.18187" y1="5.36337" x2="27.1819" y2="27.7269" gradientUnits="userSpaceOnUse">
<stop stop-color="#315BEA"/>
<stop offset="1" stop-color="#2F2DD4"/>
</linearGradient>
<linearGradient id="paint1_linear_737_6213" x1="-11.6358" y1="31.5461" x2="52.9096" y2="3.54599" gradientUnits="userSpaceOnUse">
<stop stop-color="#FFF01E"/>
<stop offset="1" stop-color="#FFD21E"/>
</linearGradient>
</defs>
</svg>
